<svg width="1240" height="1240" viewBox="0 0 1240 1240" fill="none" xmlns="http://www.w3.org/2000/svg">
<path d="M328.791 915.71C267.84 875.556 228.474 809.848 221.823 737.163L207.136 576.659C200.479 503.914 227.315 432.098 280.046 381.544L396.109 270.274C448.863 219.697 521.788 195.914 594.217 205.663L753.737 227.136C826.091 236.875 890.079 279.02 927.599 341.647L1010.48 479.99C1048 542.618 1054.98 618.919 1029.43 687.311L973.109 838.094C947.537 906.557 892.164 959.637 822.682 982.293L669.818 1032.14C600.368 1054.78 524.384 1044.57 463.383 1004.38L328.791 915.71Z" fill="white"/>
<path d="M412.811 686.637C416.792 689.861 418.706 691.808 420.325 696.672C420.445 698.76 420.494 700.852 420.502 702.943C420.511 704.221 420.52 705.499 420.529 706.816C420.534 708.2 420.54 709.583 420.545 711.009C420.574 713.952 420.604 716.895 420.635 719.838C420.679 724.467 420.716 729.096 420.733 733.725C420.84 758.193 421.649 780.486 439.423 799.293C455.125 814.021 472.952 818.483 493.899 818.564C496.808 818.593 499.717 818.623 502.626 818.654C507.194 818.698 511.761 818.735 516.328 818.752C520.75 818.771 525.17 818.822 529.59 818.877C530.952 818.875 532.315 818.872 533.718 818.87C541.348 818.993 546.047 819.427 551.819 824.615C554.134 829.252 553.667 834.605 553.071 839.667C550.822 843.347 549.384 845.276 545.558 847.193C543.349 847.332 541.136 847.393 538.923 847.415C537.534 847.431 536.145 847.447 534.713 847.464C533.2 847.473 531.687 847.482 530.128 847.492C528.567 847.502 527.006 847.512 525.398 847.522C522.077 847.54 518.757 847.554 515.436 847.563C510.417 847.58 505.399 847.64 500.381 847.695C471.577 847.872 446.42 844.707 424.082 824.615C422.539 823.244 422.539 823.244 420.966 821.846C405.843 807.619 393.985 786.776 392.512 765.673C392.381 761.195 392.328 756.724 392.309 752.245C392.298 750.607 392.286 748.968 392.275 747.28C392.254 743.829 392.244 740.377 392.241 736.925C392.234 732.516 392.187 728.109 392.13 723.7C392.083 719.469 392.082 715.239 392.074 711.009C392.05 709.433 392.025 707.857 392 706.233C392.063 694.055 392.063 694.055 395.713 689.426C401.153 684.86 406.136 684.709 412.811 686.637Z" fill="#DD3E3E"/>
<path d="M710.821 391.079C712.405 391.076 713.99 391.073 715.623 391.069C718.979 391.071 722.332 391.084 725.687 391.119C729.932 391.161 734.174 391.154 738.419 391.131C772.188 390.985 772.187 390.985 787.257 396.885C788.195 397.239 789.134 397.593 790.101 397.958C800.331 402.184 809.14 408.317 817.312 415.7C818.17 416.442 819.027 417.184 819.91 417.949C836.211 432.993 846.142 455.117 847.622 477.178C847.738 481.362 847.781 485.54 847.789 489.726C847.801 492.011 847.801 492.011 847.814 494.342C847.827 497.543 847.833 500.743 847.832 503.943C847.838 508.838 847.883 513.73 847.931 518.624C847.938 521.744 847.943 524.863 847.946 527.983C847.964 529.441 847.981 530.9 848 532.402C847.956 540.26 847.75 545.25 842.359 551.169C839.139 553.09 836.073 553.58 832.34 553.677C827.631 552.363 824.72 551.222 821.478 547.524C818.919 541.543 819.29 535.731 819.308 529.291C819.295 527.888 819.281 526.485 819.267 525.039C819.224 520.552 819.205 516.066 819.191 511.579C819.172 505.697 819.13 499.816 819.073 493.934C819.077 492.605 819.081 491.276 819.085 489.906C818.892 470.371 812.737 452.82 799.129 438.597C787.189 427.729 771.791 420.601 755.526 420.539C754.221 420.531 752.917 420.522 751.574 420.513C749.48 420.505 749.48 420.505 747.344 420.497C744.373 420.468 741.403 420.437 738.433 420.406C733.761 420.362 729.089 420.325 724.417 420.308C719.901 420.289 715.386 420.239 710.87 420.183C709.476 420.186 708.083 420.188 706.647 420.19C698.928 420.068 694.17 419.68 688.323 414.446C685.833 410.868 685.46 408.169 685.818 403.862C685.87 402.932 685.921 402.003 685.975 401.045C690.187 389.875 700.74 390.968 710.821 391.079Z" fill="#DD3E3E"/>
<path d="M837.35 685.383C841.93 687.942 844.45 689.778 847.368 694.163C847.703 697.195 847.703 697.195 847.732 700.835C847.748 702.202 847.764 703.568 847.781 704.976C847.783 706.457 847.786 707.939 847.789 709.465C847.801 711.766 847.801 711.766 847.814 714.114C847.827 717.373 847.833 720.633 847.832 723.892C847.838 728.817 847.883 733.741 847.931 738.666C848.024 759.039 847.517 777.887 837.663 796.235C837.231 797.063 836.8 797.891 836.356 798.744C824.822 820.218 805.991 834.752 783.5 843.43C772.313 846.756 761.629 847.779 750.005 847.781C748.433 847.79 746.862 847.8 745.243 847.81C741.118 847.827 736.994 847.824 732.869 847.817C729.502 847.821 726.136 847.863 722.769 847.903C718.724 847.943 714.68 847.938 710.635 847.938C708.386 847.969 708.386 847.969 706.092 848C694.527 847.904 694.527 847.904 689.898 844.187C686.298 840.029 685.777 837.744 685.52 832.415C686 827.932 687.862 825.397 690.827 822.106C694.679 819.696 697.639 819.279 702.145 819.257C703.4 819.244 704.655 819.232 705.948 819.218C707.975 819.214 707.975 819.214 710.043 819.21C712.926 819.179 715.809 819.147 718.692 819.115C723.22 819.079 727.748 819.049 732.276 819.025C736.658 818.998 741.039 818.948 745.421 818.897C747.418 818.897 747.418 818.897 749.455 818.896C768.967 818.643 786.508 812.529 800.714 798.871C811.863 786.601 818.679 770.614 818.742 753.928C818.751 752.618 818.76 751.308 818.769 749.958C818.777 747.855 818.777 747.855 818.785 745.709C818.814 742.728 818.844 739.748 818.875 736.767C818.919 732.076 818.956 727.386 818.973 722.695C818.992 718.162 819.043 713.631 819.098 709.098C819.096 707.696 819.093 706.294 819.091 704.849C819.244 695.109 819.244 695.109 822.22 690.197C827.146 685.84 830.701 684.584 837.35 685.383Z" fill="#DD3E3E"/>
<path d="M504.311 391.213C508.58 391.242 512.847 391.225 517.115 391.195C521.225 391.173 525.334 391.189 529.444 391.201C530.969 391.191 532.494 391.181 534.065 391.17C535.483 391.186 536.901 391.202 538.362 391.218C539.604 391.222 540.846 391.226 542.126 391.23C546.503 392.043 548.624 393.845 551.819 396.885C554.147 401.547 553.797 406.86 553.071 411.937C549.907 416.134 548.013 417.807 543.053 419.463C540.968 419.583 538.88 419.633 536.792 419.641C535.516 419.65 534.24 419.658 532.925 419.668C531.544 419.673 530.162 419.678 528.739 419.683C525.801 419.713 522.862 419.743 519.924 419.774C515.302 419.818 510.681 419.855 506.059 419.872C482.683 419.566 482.683 419.566 460.399 425.735C459.412 426.151 458.424 426.568 457.407 426.997C451.941 429.392 447.757 432.731 443.424 436.808C441.614 438.278 441.614 438.278 439.11 438.278C438.784 438.988 438.458 439.698 438.122 440.429C436.468 443.555 434.505 446.195 432.378 449.018C425.282 459.028 421.467 470.317 421.38 482.603C421.36 484.563 421.36 484.563 421.341 486.562C421.332 487.96 421.322 489.358 421.313 490.799C421.278 493.774 421.242 496.749 421.205 499.724C421.154 504.403 421.107 509.082 421.075 513.762C421.04 518.285 420.983 522.808 420.922 527.331C420.918 528.727 420.914 530.123 420.909 531.561C420.799 538.526 420.71 544.012 416.568 549.914C411.707 552.969 408.151 554.137 402.557 553.05C397.619 551.841 395.587 549.027 392.774 544.897C392.146 541.387 392.146 541.387 392.145 537.515C392.134 536.057 392.122 534.6 392.11 533.098C392.124 531.531 392.138 529.965 392.152 528.35C392.151 526.725 392.149 525.099 392.147 523.423C392.145 519.981 392.161 516.539 392.189 513.096C392.225 508.726 392.222 504.356 392.206 499.986C392.195 495.774 392.214 491.562 392.231 487.349C392.227 485.8 392.223 484.251 392.22 482.656C392.367 468.861 394.858 456.471 401.305 444.236C401.744 443.382 402.183 442.527 402.635 441.647C405.893 435.439 409.523 429.832 414.063 424.48C414.993 423.238 415.923 421.997 416.881 420.717C424.016 412.428 432.844 406.566 442.475 401.589C443.224 401.191 443.973 400.793 444.744 400.384C447.414 399.066 450.108 397.959 452.885 396.885C454.044 396.427 455.202 395.97 456.395 395.498C471.943 390.371 488.109 391.103 504.311 391.213Z" fill="#DD3E3E"/>
<path d="M708.531 587.125H692.344V562.844C692.344 522.61 659.734 490 619.5 490C579.266 490 546.656 522.61 546.656 562.844V587.125H530.469C526.176 587.125 522.058 588.83 519.022 591.866C515.987 594.902 514.281 599.019 514.281 603.312V732.812C514.281 737.106 515.987 741.223 519.022 744.259C522.058 747.295 526.176 749 530.469 749H708.531C712.824 749 716.942 747.295 719.978 744.259C723.013 741.223 724.719 737.106 724.719 732.812V603.312C724.719 599.019 723.013 594.902 719.978 591.866C716.942 588.83 712.824 587.125 708.531 587.125ZM554.75 561.889C554.75 544.969 561.471 528.743 573.435 516.779C585.399 504.815 601.625 498.094 618.545 498.094H620.447C628.825 498.093 637.122 499.742 644.863 502.948C652.604 506.153 659.637 510.852 665.562 516.776C671.487 522.7 676.187 529.733 679.393 537.474C682.6 545.214 684.25 553.51 684.25 561.889V587.125H554.75V561.889ZM716.625 724.719C716.625 729.012 714.92 733.129 711.884 736.165C708.848 739.201 704.731 740.906 700.438 740.906H538.562C534.269 740.906 530.152 739.201 527.116 736.165C524.08 733.129 522.375 729.012 522.375 724.719V611.406C522.375 607.113 524.08 602.996 527.116 599.96C530.152 596.924 534.269 595.219 538.562 595.219H700.438C704.731 595.219 708.848 596.924 711.884 599.96C714.92 602.996 716.625 607.113 716.625 611.406V724.719Z" fill="#1C1C1C"/>
</svg>
